<?xml version="1.0" standalone="no"?>
<!DOCTYPE svg PUBLIC "-//W3C//DTD SVG 1.1//EN" "http://www.w3.org/Graphics/SVG/1.1/DTD/svg11.dtd" >
<svg xmlns="http://www.w3.org/2000/svg">
<metadata>Generated by IcoMoon</metadata>
<defs>
<font id="icomoon" horiz-adv-x="1024">
<font-face units-per-em="1024" ascent="960" descent="-64" />
<missing-glyph horiz-adv-x="1024" />
<glyph unicode="&#x20;" d="" horiz-adv-x="512" />
<glyph unicode="&#xe600;" d="M327.091 557.978c13.005-42.086 36.966-78.566 66.842-104.986 32.512-28.774 72.013-45.875 112.307-45.875 40.371 0 79.949 17.126 112.461 45.978 30.003 26.624 53.99 63.309 66.918 105.677 12.902 7.014 22.477 18.867 28.928 34.816 6.963 17.331 10.189 39.859 9.754 66.534l-0.128 8.602-7.142 4.813c-2.714 1.818-5.427 3.533-8.192 4.992 14.208 104.499-4.966 174.182-58.47 213.376-78.848 57.779-226.688 57.293-304.538-6.477-50.048-40.986-63.334-94.182-47.462-209.254-1.408-0.819-2.765-1.69-4.096-2.637l-7.142-4.813-0.179-8.602c-0.41-27.213 2.918-50.099 10.189-67.533 6.682-16.102 16.64-27.878 29.952-34.611zM314.47 661.939c2.406 1.152 4.736 2.125 6.989 2.842 2.355 0.717 4.403 1.203 6.502 1.562l1.613 0.256 4.352-0.41c7.578-0.717 15.104-1.408 21.76-2.125l31.411 52.045 9.267-2.458c50.176-13.338 96.614-19.814 142.029-19.814 33.536 0 66.022 3.405 102.298 10.778l11.315 2.278 13.44-43.059c4.71 0.666 9.805 0.998 15.027 1.306l6.784 0.435 2.355-0.768c2.739-0.896 4.941-1.792 7.168-2.893l7.347-3.584-0.179-8.166c-0.41-19.891-3.2-36.378-8.32-49.024-5.683-14.003-14.157-23.040-25.114-26.906l-1.894-0.666-0.538-1.946c-10.829-40.243-33.126-76.928-62.822-103.322-29.568-26.291-64.742-40.781-99.021-40.781-34.15 0-69.248 14.413-98.816 40.602-29.722 26.342-52.045 62.925-62.899 103.040l-0.538 2.048-2.048 0.64c-11.366 3.482-20.122 12.416-25.984 26.496-5.325 12.698-8.243 29.44-8.704 49.766l-0.179 8.243 7.398 3.584zM869.811 63.949l-50.918 11.008c8.269 76.262-22.016 188.8-75.366 265.6h-10.88c-18.509 0-35.61-2.15-50.688 0.845-12.314 2.458-23.603-0.845-33.92-0.845h-6.374l-1.587 0.87c-36.122-33.459-83.738-51.046-135.27-51.046-48.102 0-94.003 24.576-130.56 50.176h-9.6c-10.138 0-21.734 2.79-33.971 0.691-15.053-2.586-32.128-0.691-50.432-0.691h-10.086c-65.178-76.8-77.619-197.478-79.078-267.878l-51.2-1.664c2.099 100.608 22.323 234.522 106.701 308.147l12.39 15.59 17.178-2.995h4.070c13.926 0 28.083-3.046 41.754-0.691 10.547 1.818 21.35 0.947 32.307 1.741l22.246 18.381 24.602-26.291c27.878-27.725 64.845-43.546 103.654-43.546 41.37 0 79.13 15.411 106.317 43.648l4.403 3.558 20.045 13.107 18.816-9.856c12.8-0.614 25.344-3.149 37.53-5.555 14.054-2.79 27.29-5.453 40.73-5.453l4.48 0.794 16.64 9.933 14.080-13.338c72.704-68.787 112.077-220.851 101.99-314.24zM179.2 17.357h665.6v-51.2h-665.6v51.2z" />
<glyph unicode="&#xe601;" d="M510.31 420.25l3.533 1.101 3.507-1.971c32.512 7.475 60.8 33.152 84.89 33.152h145.254l-9.165 154.982-0.026 1.818c-1.971 108.493-43.366 247.962-87.782 280.525-73.702 53.99-223.206 51.866-295.936-7.706-40.832-33.485-75.802-163.866-76.006-274.842l-9.165-154.726h154.573c24.474-0.026 53.248-25.498 86.323-32.333zM349.747 597.709c-1.101 3.994-2.125 7.936-3.072 11.93l-0.461 1.997 9.83 115.533 14.746-3.917c38.886-10.342 84.915-15.59 136.883-15.565 48.205 0 101.171 4.915 141.696 13.133l11.29 2.304 3.482-10.982c2.406-7.654 3.738-32.23 6.17-86.451 0.691-15.514 1.382-31.027 2.125-44.416l0.154-2.842-1.075-2.637c-26.931-66.56-81.997-113.101-155.034-131.046l-2.918-0.717-2.918 0.666c-78.387 17.408-138.522 74.624-160.896 153.011zM163.2 23.757h691.2v-51.2h-691.2v51.2zM131.891 56.96c-18.202 91.648 3.277 281.677 214.835 344.704l29.158 8.653 21.581-21.427c29.056-28.928 67.584-44.826 108.544-44.826 42.291 0 81.741 16.768 111.078 47.232l23.194 23.885 31.386-11.213c184.73-66.995 226.867-247.578 210.074-345.677l-50.483 8.653c14.029 81.766-21.632 232.525-176.922 288.845l-0.282 0.102-0.179-0.179c-38.989-40.499-91.546-62.848-147.866-62.848-54.605 0-105.984 21.197-144.64 59.725v0h-0.026c-176.179-52.48-194.278-209.792-179.2-285.645l-50.253-9.984z" />
<glyph unicode="&#xe602;" d="M496.742 292.659c-113.843 0-199.68 92.365-199.68 214.835v179.405c0 122.496 85.862 214.861 199.68 214.861s199.68-92.365 199.68-214.861v-179.405c0-122.47-85.837-214.835-199.68-214.835zM496.742 840.269c-78.822 0-138.24-65.946-138.24-153.395v-179.405c0-87.45 59.418-153.37 138.24-153.37s138.24 65.946 138.24 153.37v179.405c0 87.45-59.443 153.395-138.24 153.395zM127.283 55.808h-61.44c0 74.88 134.938 181.018 328.525 213.606l9.498 1.613 8.704-4.122c54.477-25.728 120.346-24.73 173.824 2.816l8.602 4.429 9.6-1.306c199.91-27.264 349.312-136.499 349.312-215.962h-61.44c0 33.485-111.078 127.13-287.002 153.779-65.306-30.49-143.514-31.693-209.971-3.405-167.117-30.694-268.211-119.552-268.211-151.45zM60.8 23.757h896v-51.2h-896v51.2z" />
<glyph unicode="&#xe603;" d="M906.291 233.267h-601.958l-153.6 552.96h-99.533v61.44h146.227l153.6-552.934h503.987l50.278 276.454h-484.070v61.466h557.67zM389.12-12.467c-50.816 0-92.16 41.344-92.16 92.16s41.344 92.186 92.16 92.186 92.16-41.344 92.16-92.186c0-50.816-41.344-92.16-92.16-92.16zM389.12 110.387c-16.947 0-30.72-13.773-30.72-30.72 0-16.922 13.773-30.694 30.72-30.694s30.72 13.773 30.72 30.694c-0.026 16.947-13.798 30.72-30.72 30.72zM788.48-12.467c-50.816 0-92.186 41.344-92.186 92.16s41.344 92.186 92.186 92.186c50.816 0 92.134-41.344 92.134-92.186 0-50.816-41.318-92.16-92.134-92.16zM788.48 110.387c-16.947 0-30.72-13.773-30.72-30.72 0-16.922 13.773-30.694 30.72-30.694 16.922 0 30.694 13.773 30.694 30.694 0.026 16.947-13.773 30.72-30.694 30.72zM481.28 509.747h61.44v-153.6h-61.44v153.6zM665.6 509.747h61.44v-153.6h-61.44v153.6zM481.28 694.067h-61.466v83.584l205.338 68.454 19.43-58.317-163.302-54.4zM911.386 694.067h-61.466v68.198l-184.32 46.080v-114.278h-61.44v192.947l307.226-76.774z" />
<glyph unicode="&#xe604;" d="M767.974 84.787h-675.84v860.186h675.84v-860.186zM153.6 146.253h552.934v737.28h-552.934v-737.28zM245.76 576.333h368.64v-61.44h-368.64v61.44zM245.76 453.453h368.64v-61.44h-368.64v61.44zM245.76 330.573h368.64v-61.44h-368.64v61.44zM245.76 699.725h184.32v-61.44h-184.32v61.44zM952.32-38.067h-645.12v61.44h583.68v737.254h-59.776v61.44h121.216z" />
<glyph unicode="&#xe605;" d="M880.717-38.4h-737.28v399.36h61.44v-337.92h614.4v337.92h61.44zM950.4 370.662l-438.4 467.635-438.4-467.635-44.8 42.035 483.2 515.405 483.2-515.405zM634.88 84.48h-61.466v215.014h-122.829v-215.014h-61.466v276.48h245.76zM512.051 422.4c-67.763 0-122.88 55.117-122.88 122.88s55.117 122.88 122.88 122.88 122.88-55.117 122.88-122.88-55.117-122.88-122.88-122.88zM512.051 606.694c-33.869 0-61.44-27.546-61.44-61.414s27.571-61.414 61.44-61.414 61.44 27.546 61.44 61.414-27.546 61.414-61.44 61.414z" />
<glyph unicode="&#xe606;" d="M687.701 344.213l-164.288 194.752h-22.827l-164.288-194.752-32.597 27.499 177.045 209.92h62.507l177.045-209.92z" />
<glyph unicode="&#xe607;" d="M543.253 325.248h-62.507l-177.045 209.899 32.597 27.52 164.288-194.752h22.827l164.288 194.752 32.597-27.52z" />
<glyph unicode="&#xe608;" d="M756.48 505.621c0 11.797-9.536 21.333-21.333 21.333h-469.333c-11.797 0-21.333-9.536-21.333-21.333v-128c0-11.797 9.536-21.333 21.333-21.333h469.333c11.797 0 21.333 9.536 21.333 21.333v128zM713.813 398.955h-426.667v85.333h426.667v-85.333z" />
<glyph unicode="&#xe609;" d="M617.749 437.333l128 128c9.365 9.387 9.365 20.821 0 30.187l-90.496 90.496c-9.344 9.387-20.821 9.387-30.187 0l-128-128-128 128c-9.365 9.387-20.821 9.387-30.187 0l-90.496-90.496c-9.365-9.365-9.365-20.8 0-30.187l128-128-128-128c-9.365-9.344-9.365-20.8 0-30.165l90.496-90.496c9.365-9.387 20.821-9.387 30.187 0l128 127.957 128-127.957c9.344-9.387 20.8-9.387 30.165 0l90.496 90.496c9.365 9.365 9.365 20.821 0 30.165l-127.979 128zM640.149 233.92l-143.083 143.061-143.104-143.083-60.331 60.331 143.104 143.104-143.104 143.104 60.331 60.331 143.104-143.104 143.104 143.104 60.331-60.331-143.104-143.104 143.083-143.083-60.331-60.331z" />
<glyph unicode="&#xe60a;" d="M735.467 533.333h-149.632v149.483c0 13.248-7.787 21.184-21.035 21.184h-128c-13.248 0-21.632-7.936-21.632-21.184v-149.483h-149.035c-13.248 0-21.632-7.936-21.632-21.184v-128c0-13.248 8.384-21.483 21.632-21.483h149.035v-149.184c0-13.248 8.384-21.483 21.632-21.483h128c13.248 0 21.035 8.235 21.035 21.483v149.184h149.632c13.248 0 21.035 8.235 21.035 21.483v128c0 13.248-7.787 21.184-21.035 21.184zM713.835 405.333h-170.667v-170.667h-85.333v170.667h-170.667v85.333h170.667v170.667h85.333v-170.667h170.667v-85.333z" />
<glyph unicode="&#xe60b;" d="M850.133 219.456l-192.427 192.427c16.363 34.283 25.835 72.491 25.835 113.024 0 145.109-117.632 262.699-262.699 262.699-145.109 0-262.699-117.611-262.699-262.699s117.611-262.699 262.699-262.699c40.512 0 78.741 9.451 113.024 25.835l192.448-192.427c11.392-11.413 29.867-11.413 41.28 0l82.56 82.539c11.371 11.435 11.371 29.888-0.021 41.301zM420.843 320.576c-112.853 0-204.331 91.499-204.331 204.331 0 112.853 91.477 204.331 204.331 204.331s204.309-91.477 204.309-204.331c0-112.832-91.456-204.331-204.309-204.331zM584.683 319.787c15.275 12.203 29.056 26.005 41.28 41.28l100.331-100.373-41.28-41.259-100.331 100.352zM746.944 157.547l-41.301 41.28 41.301 41.28 41.28-41.28-41.28-41.28zM420.843 700.053c-96.725 0-175.147-78.421-175.147-175.125s78.421-175.147 175.147-175.147c96.683 0 175.125 78.443 175.125 175.147s-78.443 175.125-175.125 175.125zM420.843 378.965c-80.619 0-145.963 65.323-145.963 145.941s65.344 145.941 145.963 145.941c80.597 0 145.941-65.323 145.941-145.941s-65.344-145.941-145.941-145.941z" />
<glyph unicode="&#xe60c;" d="M768.341 106.411h-512.725v142.613c0 41.877 12.075 82.688 34.944 118.037 20.437 31.701 48.597 57.728 81.899 75.883-33.344 18.176-61.461 44.181-81.92 75.883-22.848 35.328-34.923 76.139-34.923 118.037v126.635h32v-126.635c0-35.691 10.304-70.507 29.803-100.672 19.563-30.357 47.381-54.656 80.427-70.272 7.509-3.52 13.333-6.933 17.728-10.411l15.936-12.565-15.936-12.565c-4.416-3.477-10.219-6.891-17.771-10.432-32.981-15.595-60.8-39.893-80.363-70.229-19.52-30.165-29.824-64.981-29.824-100.672v-110.613h448.704v110.613c0 35.627-10.304 70.443-29.824 100.672-19.605 30.379-47.424 54.677-80.427 70.229-7.765 3.712-13.547 7.147-17.771 10.517l-15.659 12.501 15.659 12.501c4.288 3.435 10.112 6.848 17.771 10.475 33.003 15.595 60.821 39.893 80.448 70.251 19.499 30.208 29.803 65.003 29.803 100.672v110.635h-403.179v32h435.179v-142.635c0-41.835-12.075-82.667-34.944-118.037-20.48-31.723-48.64-57.771-81.941-75.883 33.259-18.069 61.419-44.096 81.941-75.883 22.848-35.413 34.944-76.224 34.944-118.037v-142.613zM206.784 5.867h610.389v-42.667h-610.389v42.667zM206.784 938.667h610.389v-42.667h-610.389v42.667zM588.779 250.176l148.843-113.835h-448.512l148.8 113.835c45.163 34.539 105.685 34.539 150.869 0z" />
<glyph unicode="&#xe60d;" d="M365.76 138.603l-27.52 32.597 312.427 263.531v47.637l-312.427 263.531 27.52 32.619 327.573-276.309v-87.317z" />
<glyph unicode="&#xe60e;" d="M689.131 451.925c0-98.38-79.753-178.133-178.133-178.133s-178.133 79.753-178.133 178.133c0 98.38 79.753 178.133 178.133 178.133s178.133-79.753 178.133-178.133z" />
<glyph unicode="&#xe60f;" d="M606.912 376.384c-20.629 0-40.149 19.52-40.149 40.171 0 20.629 19.52 40.149 40.149 40.149 29.376 0 47.552-20.843 47.552-40.149 0.021-19.755-17.771-40.171-47.552-40.171zM606.912 435.349c-8.789 0-18.816-10.027-18.816-18.816 0-8.981 9.835-18.837 18.816-18.837 16.192 0 26.219 9.771 26.219 18.837 0.021 9.088-10.517 18.816-26.219 18.816zM769.109 376.384c-20.544 0-39.979 19.52-39.979 40.171 0 20.629 19.435 40.149 39.979 40.149 29.355 0 47.552-20.843 47.552-40.149-0.021-22.165-21.333-40.171-47.552-40.171zM769.109 435.349c-8.704 0-18.645-10.027-18.645-18.816 0-8.981 9.771-18.837 18.645-18.837 15.68 0 26.219 9.749 26.219 18.837-0.021 9.088-10.539 18.816-26.219 18.816zM304.661 575.552c-26.475 0-55.061 18.176-55.061 47.552 0 29.312 28.587 47.467 55.061 47.467 27.925 0 47.445-19.52 47.445-47.467 0-28.011-19.52-47.552-47.445-47.552zM304.661 649.216c-16.299 0-33.728-10.496-33.728-26.133 0-15.68 17.429-26.219 33.728-26.219 16.107 0 26.112 10.048 26.112 26.219 0 16.363-9.771 26.133-26.112 26.133zM511.040 575.552c-26.432 0-54.976 18.176-54.976 47.552 0 29.312 28.544 47.467 54.976 47.467 28.011 0 47.552-19.52 47.552-47.467 0.021-28.011-19.541-47.552-47.552-47.552zM511.040 649.216c-16.171 0-33.643-9.984-33.643-26.133 0-15.68 17.387-26.219 33.643-26.219 16.171 0 26.219 10.048 26.219 26.219 0.021 16.363-9.792 26.133-26.219 26.133zM656.533 627.989c-45.888 82.581-146.411 135.957-256.085 135.957v42.667c124.907 0 240.064-61.973 293.376-157.888l-37.291-20.736zM126.933 534.507h-42.667c0 150.037 141.845 272.107 316.181 272.107v-42.667c-150.805 0-273.515-102.933-273.515-229.44zM157.653 204.565l40.789 122.837c-74.752 56.704-114.155 128.021-114.155 207.104h42.667c0-69.952 36.629-131.051 108.885-181.568l13.035-9.109-18.24-54.933 63.552 31.893 24.811-4.971c28.373-5.803 52.864-10.816 81.515-10.816v-42.667c-32.96 0-60.715 5.675-90.069 11.691l-10.219 2.069-142.571-71.531zM893.035 62.912l-119.253 65.323c-27.755-6.891-56.341-13.376-85.547-13.376-150.037 0-272.107 105.557-272.107 235.285s122.069 235.285 272.107 235.285c147.307 0 271.765-107.733 271.765-235.285 0-62.699-35.371-125.333-99.989-177.621l33.024-109.611zM779.627 173.675l42.496-23.275-11.477 38.101 11.947 8.939c61.099 45.803 94.741 100.032 94.741 152.704 0 104.427-104.917 192.619-229.099 192.619-126.507 0-229.44-86.4-229.44-192.619s102.933-192.619 229.44-192.619c26.816 0 55.531 7.189 83.307 14.144l8.085 2.005z" />
<glyph unicode="&#xe610;" d="M511.445-23.168c-35.093 0-65.728 22.251-86.251 62.635l-113.877 223.957c-29.867 58.688-70.741 157.141-91.115 219.456-2.645 8.064-63.467 198.784 29.227 326.699 51.84 71.488 139.157 107.755 259.563 107.755 117.461 0 204.245-36.181 257.984-107.563 42.155-55.936 62.421-134.037 58.624-225.877-2.88-69.312-17.941-120.747-18.112-121.259-18.304-63.659-60.011-162.688-92.907-220.48l-117.739-206.741c-21.483-37.76-51.819-58.581-85.397-58.581zM508.992 874.667c-105.963 0-181.675-30.336-225.045-90.155-80.064-110.485-25.579-281.173-23.211-288.405 19.819-60.565 59.563-156.288 88.576-213.355l113.899-223.979c7.467-14.677 23.637-39.296 48.213-39.296 17.579 0 34.752 13.141 48.341 37.013l117.739 206.741c31.509 55.36 71.467 150.229 89.088 211.477 0.213 0.704 13.781 48.213 16.405 110.933 3.371 81.856-13.931 150.485-50.091 198.443-45.248 60.117-120.576 90.581-223.915 90.581zM512.853 454.251c-83.392 0-151.253 67.861-151.253 151.253 0 83.413 67.861 151.275 151.253 151.275 83.413 0 151.275-67.861 151.275-151.275 0-83.392-67.861-151.253-151.275-151.253zM512.853 714.112c-59.883 0-108.587-48.725-108.587-108.608s48.704-108.587 108.587-108.587c59.883 0 108.608 48.704 108.608 108.587s-48.725 108.608-108.608 108.608z" />
<glyph unicode="&#xe611;" d="M369.067 473.6h332.821v-42.667h-332.821v42.667zM369.067 371.2h332.821v-42.667h-332.821v42.667zM369.067 268.821h332.821v-42.667h-332.821v42.667zM369.067 627.2h153.6v-42.667h-153.6v42.667zM876.8 21.333h-682.667v712.533h42.667v-669.867h597.333v725.333h-644.267v42.667h686.933z" />
<glyph unicode="&#xe612;" d="M258.133 485.355h51.2v-42.667h-51.2v42.667zM411.733 485.355h51.2v-42.667h-51.2v42.667zM565.333 485.355h51.2v-42.667h-51.2v42.667zM718.933 485.355h51.179v-42.667h-51.179v42.667zM258.133 587.755h51.2v-42.667h-51.2v42.667zM411.733 587.755h51.2v-42.667h-51.2v42.667zM565.333 587.755h51.2v-42.667h-51.2v42.667zM718.933 587.755h51.179v-42.667h-51.179v42.667zM309.333 331.755h409.6v-42.667h-409.6v42.667zM919.467 161.088h-810.667v482.133h42.667v-439.467h725.333v469.333h-772.267v42.667h814.933z" />
<glyph unicode="&#xe613;" d="M610.133 273.045h-503.467v503.488h503.467v-503.488zM149.333 315.712h418.133v418.155h-418.133v-418.155zM917.333 273.045h-251.755v42.667h209.088v178.453l-68.651 137.301h-93.483v-162.133h106.667v-42.667h-149.333v247.467h162.539l84.928-169.899zM204.8 469.333h307.2v-42.667h-307.2v42.667zM793.579 119.467c-54.101 0-98.133 44.011-98.133 98.133h42.667c0-30.592 24.875-55.467 55.467-55.467s55.488 24.875 55.488 55.467h42.667c0-54.101-44.032-98.133-98.155-98.133zM307.2 119.467c-54.123 0-98.155 44.011-98.155 98.133h42.667c0-30.592 24.896-55.467 55.488-55.467s55.467 24.875 55.467 55.467h42.667c0-54.101-44.011-98.133-98.133-98.133z" />
<glyph unicode="&#xe614;" d="M636.565 732.544l-109.675-111.979c-3.691-3.755-8.512-5.483-13.355-5.355-0.533-0.021-1.003-0.32-1.536-0.32-10.24 0-18.539 8.299-18.539 18.539v110.379c-155.221-9.621-278.208-138.197-278.208-295.808 0-84.757 35.755-161.045 92.757-215.125v-0.043c9.536-8.619 18.539-20.011 18.539-25.941 0-10.219-8.32-18.539-18.539-18.539v-4.181c-2.219 1.707-4.139 3.712-6.315 5.461-4.181 1.536-7.488 4.523-9.643 8.384-69.525 61.099-113.877 150.144-113.877 249.984 0 178.133 139.584 323.221 315.285 332.907v75.115c0 10.24 8.299 18.539 18.539 18.539 0.064 0 0.128-0.043 0.171-0.043 5.333 0.619 10.816-0.875 14.869-5.035l109.525-110.677c3.413-3.499 5.333-8.213 5.333-13.141s-1.92-9.643-5.333-13.12zM530.539 813.696v-136.832l67.413 68.821-67.413 68.011zM845.824 448c0-178.112-139.584-323.2-315.285-332.885v-75.115c0-10.219-8.299-18.56-18.539-18.56-0.064 0-0.128 0.043-0.171 0.043-5.333-0.576-10.816 0.896-14.869 5.056l-109.525 110.656c-3.413 3.477-5.333 8.192-5.333 13.12s1.92 9.685 5.333 13.141l109.675 111.979c3.691 3.755 8.512 5.483 13.355 5.333 0.533 0.064 1.003 0.32 1.536 0.32 10.24 0 18.539-8.299 18.539-18.539v-110.336c155.221 9.579 278.208 138.155 278.208 295.787 0 84.8-35.755 161.045-92.757 215.125v0.064c-9.536 8.619-18.539 20.011-18.539 25.941 0 10.24 8.32 18.539 18.539 18.539v4.181c2.219-1.728 4.16-3.712 6.315-5.483 4.181-1.493 7.488-4.501 9.643-8.363 69.525-61.141 113.877-150.144 113.877-250.005zM493.461 219.136l-67.413-68.843 67.413-68.011v136.853z" />
</font>
</defs>
</svg>
